  0
SECTION
  2
ENTITIES
  0
POLYLINE
  8
Paper
 70
1
 62
0
 10
0
 20
0
  0
VERTEX
 10
240
 20
-240
  0
VERTEX
 10
240
 20
240
  0
VERTEX
 10
-240
 20
240
  0
VERTEX
 10
-240
 20
-240
  0
SEQEND
0
POLYLINE
  8
Paper
 70
1
 62
0
 10
0
 20
0
  0
VERTEX
 10
240
 20
-240
  0
VERTEX
 10
240
 20
240
  0
VERTEX
 10
-240
 20
240
  0
VERTEX
 10
-240
 20
-240
  0
SEQEND
  0
LINE
  8
Mountain
 62
1
 10
0
 20
-240
 11
0
 21
0
  0
LINE
  8
Mountain
 62
1
 10
0
 20
0
 11
0
 21
240
  0
LINE
  8
Mountain
 62
1
 10
-240
 20
0
 11
0
 21
0
 0
LINE
  8
Mountain
 62
1
 10
0
 20
0
 11
240
 21
0
 0
LINE
  8
Valley
 62
5
 10
-240
 20
-240
 11
0
 21
0
 0
LINE
  8
Valley
 62
5
 10
0
 20
0
 11
240
 21
240
 0
LINE
  8
Valley
 62
5
 10
-240
 20
240
 11
0
 21
0
0
LINE
  8
Valley
 62
5
 10
0
 20
0
 11
240
 21
-240
 0
ENDSEC
  0
EOF